<mxfile host="app.diagrams.net" modified="2021-08-14T10:32:03.446Z" agent="5.0 (Macintosh; Intel Mac OS X 10_15_7) AppleWebKit/537.36 (KHTML, like Gecko) Chrome/86.0.4240.193 Safari/537.36" etag="E-SGxYLZXOUQE-Wk4VWM" version="14.9.5" type="github">
  <diagram id="eX6lG1CJiNFWETUgTc3b" name="Page-1">
    <mxGraphModel dx="1773" dy="536" grid="1" gridSize="10" guides="1" tooltips="1" connect="1" arrows="1" fold="1" page="1" pageScale="1" pageWidth="827" pageHeight="1169" math="0" shadow="0">
      <root>
        <mxCell id="0" />
        <mxCell id="1" parent="0" />
        <mxCell id="RTT86awP71pMhy91YYcW-17" style="edgeStyle=orthogonalEdgeStyle;rounded=0;orthogonalLoop=1;jettySize=auto;html=1;exitX=1;exitY=0.5;exitDx=0;exitDy=0;entryX=0;entryY=0.5;entryDx=0;entryDy=0;" edge="1" parent="1" source="RTT86awP71pMhy91YYcW-1" target="RTT86awP71pMhy91YYcW-2">
          <mxGeometry relative="1" as="geometry" />
        </mxCell>
        <mxCell id="RTT86awP71pMhy91YYcW-1" value="1" style="ellipse;whiteSpace=wrap;html=1;aspect=fixed;fillColor=#dae8fc;strokeColor=#6c8ebf;" vertex="1" parent="1">
          <mxGeometry x="90" y="120" width="60" height="60" as="geometry" />
        </mxCell>
        <mxCell id="RTT86awP71pMhy91YYcW-18" style="edgeStyle=orthogonalEdgeStyle;rounded=0;orthogonalLoop=1;jettySize=auto;html=1;exitX=1;exitY=0.5;exitDx=0;exitDy=0;entryX=0;entryY=0.5;entryDx=0;entryDy=0;" edge="1" parent="1" source="RTT86awP71pMhy91YYcW-2" target="RTT86awP71pMhy91YYcW-3">
          <mxGeometry relative="1" as="geometry" />
        </mxCell>
        <mxCell id="RTT86awP71pMhy91YYcW-2" value="2" style="ellipse;whiteSpace=wrap;html=1;aspect=fixed;fillColor=#dae8fc;strokeColor=#6c8ebf;" vertex="1" parent="1">
          <mxGeometry x="200" y="120" width="60" height="60" as="geometry" />
        </mxCell>
        <mxCell id="RTT86awP71pMhy91YYcW-19" style="edgeStyle=orthogonalEdgeStyle;rounded=0;orthogonalLoop=1;jettySize=auto;html=1;exitX=1;exitY=0.5;exitDx=0;exitDy=0;entryX=0;entryY=0.5;entryDx=0;entryDy=0;" edge="1" parent="1" source="RTT86awP71pMhy91YYcW-3" target="RTT86awP71pMhy91YYcW-4">
          <mxGeometry relative="1" as="geometry" />
        </mxCell>
        <mxCell id="RTT86awP71pMhy91YYcW-3" value="2" style="ellipse;whiteSpace=wrap;html=1;aspect=fixed;fillColor=#dae8fc;strokeColor=#6c8ebf;" vertex="1" parent="1">
          <mxGeometry x="310" y="120" width="60" height="60" as="geometry" />
        </mxCell>
        <mxCell id="RTT86awP71pMhy91YYcW-4" value="1" style="ellipse;whiteSpace=wrap;html=1;aspect=fixed;fillColor=#dae8fc;strokeColor=#6c8ebf;" vertex="1" parent="1">
          <mxGeometry x="420" y="120" width="60" height="60" as="geometry" />
        </mxCell>
        <mxCell id="RTT86awP71pMhy91YYcW-20" style="edgeStyle=orthogonalEdgeStyle;rounded=0;orthogonalLoop=1;jettySize=auto;html=1;exitX=1;exitY=0.5;exitDx=0;exitDy=0;entryX=0;entryY=0.5;entryDx=0;entryDy=0;" edge="1" parent="1" source="RTT86awP71pMhy91YYcW-11" target="RTT86awP71pMhy91YYcW-12">
          <mxGeometry relative="1" as="geometry" />
        </mxCell>
        <mxCell id="RTT86awP71pMhy91YYcW-11" value="1" style="ellipse;whiteSpace=wrap;html=1;aspect=fixed;fillColor=#ffe6cc;strokeColor=#d79b00;" vertex="1" parent="1">
          <mxGeometry x="90" y="230" width="60" height="60" as="geometry" />
        </mxCell>
        <mxCell id="RTT86awP71pMhy91YYcW-21" style="edgeStyle=orthogonalEdgeStyle;rounded=0;orthogonalLoop=1;jettySize=auto;html=1;exitX=1;exitY=0.5;exitDx=0;exitDy=0;entryX=0;entryY=0.5;entryDx=0;entryDy=0;" edge="1" parent="1" source="RTT86awP71pMhy91YYcW-12" target="RTT86awP71pMhy91YYcW-13">
          <mxGeometry relative="1" as="geometry" />
        </mxCell>
        <mxCell id="RTT86awP71pMhy91YYcW-12" value="2" style="ellipse;whiteSpace=wrap;html=1;aspect=fixed;fillColor=#ffe6cc;strokeColor=#d79b00;" vertex="1" parent="1">
          <mxGeometry x="200" y="230" width="60" height="60" as="geometry" />
        </mxCell>
        <mxCell id="RTT86awP71pMhy91YYcW-22" style="edgeStyle=orthogonalEdgeStyle;rounded=0;orthogonalLoop=1;jettySize=auto;html=1;exitX=1;exitY=0.5;exitDx=0;exitDy=0;entryX=0;entryY=0.5;entryDx=0;entryDy=0;" edge="1" parent="1" source="RTT86awP71pMhy91YYcW-13" target="RTT86awP71pMhy91YYcW-14">
          <mxGeometry relative="1" as="geometry" />
        </mxCell>
        <mxCell id="RTT86awP71pMhy91YYcW-13" value="3" style="ellipse;whiteSpace=wrap;html=1;aspect=fixed;fillColor=#ffe6cc;strokeColor=#d79b00;" vertex="1" parent="1">
          <mxGeometry x="310" y="230" width="60" height="60" as="geometry" />
        </mxCell>
        <mxCell id="RTT86awP71pMhy91YYcW-14" value="1" style="ellipse;whiteSpace=wrap;html=1;aspect=fixed;fillColor=#ffe6cc;strokeColor=#d79b00;" vertex="1" parent="1">
          <mxGeometry x="420" y="230" width="60" height="60" as="geometry" />
        </mxCell>
        <mxCell id="RTT86awP71pMhy91YYcW-15" value="回文链表" style="text;html=1;align=center;verticalAlign=middle;resizable=0;points=[];autosize=1;strokeColor=none;" vertex="1" parent="1">
          <mxGeometry x="-10" y="140" width="60" height="20" as="geometry" />
        </mxCell>
        <mxCell id="RTT86awP71pMhy91YYcW-16" value="非回文链表" style="text;html=1;align=center;verticalAlign=middle;resizable=0;points=[];autosize=1;strokeColor=none;" vertex="1" parent="1">
          <mxGeometry x="-20" y="250" width="80" height="20" as="geometry" />
        </mxCell>
      </root>
    </mxGraphModel>
  </diagram>
</mxfile>
